<svg width="70" height="70" viewBox="0 0 70 70" fill="none" xmlns="http://www.w3.org/2000/svg">
  <path d="M40.0114 56.546C39.5563 56.546 39.1018 56.3743 38.7544 56.0303L35.307 52.6174L31.8719 56.0188C31.1777 56.7062 30.0522 56.7062 29.3585 56.0188L13.775 40.5886C13.0808 39.9012 13.0808 38.7868 13.775 38.0999L17.2102 34.6986L13.7512 31.2736C13.0569 30.5862 13.0569 29.4718 13.7512 28.785L29.2154 13.4724C29.5488 13.1422 30.001 12.9567 30.4724 12.9567H30.4852C30.9606 12.9601 31.4157 13.152 31.7468 13.4897L35.1394 16.9452L38.9406 13.182C39.2741 12.8518 39.7262 12.6663 40.1976 12.6663C40.669 12.6663 41.1211 12.8518 41.4546 13.182L56.817 28.3932C57.325 28.8962 57.4775 29.6534 57.2022 30.3114C56.927 30.9688 56.2793 31.3975 55.56 31.3975H45.1231C44.643 31.3975 44.1832 31.2051 43.8486 30.8645L35.1045 21.9587L22.2386 34.698L35.3088 47.6396L44.8961 38.1466C45.2296 37.8164 45.6817 37.6309 46.1531 37.6309H55.5606C56.2793 37.6309 56.9275 38.0596 57.2028 38.7171C57.478 39.3745 57.3256 40.1316 56.8175 40.6352L41.2695 56.0303C40.9227 56.3737 40.4676 56.546 40.0125 56.546H40.0114ZM37.8216 50.1288L40.012 52.2976L51.2688 41.1515H46.8886L37.8222 50.1288H37.8216ZM17.5459 39.344L30.6161 52.2855L32.7943 50.1288L19.7241 37.1872L17.5459 39.344ZM17.5215 30.029L19.7235 32.2094L32.6249 19.4349L30.4537 17.2235L17.5215 30.029ZM45.8732 27.8781H51.2683L40.197 16.9158L37.6173 19.4701L45.8732 27.8786V27.8781Z" fill="url(#cbom-mark)" />
  <path d="M60.3005 1.94434H10.1415C5.88777 1.94434 2.43945 5.38548 2.43945 9.63033V59.6848C2.43945 63.9297 5.88777 67.3708 10.1415 67.3708H60.3005C64.5543 67.3708 68.0026 63.9297 68.0026 59.6848V9.63033C68.0026 5.38548 64.5543 1.94434 60.3005 1.94434Z" stroke="url(#cbom-border)" stroke-width="2.11914" stroke-miterlimit="10" />
  <defs>
    <linearGradient id="cbom-mark" x1="13.2309" y1="34.6064" x2="57.3366" y2="34.6064" gradientUnits="userSpaceOnUse">
      <stop stop-color="#0EBC81" />
      <stop offset="1" stop-color="#0AA06A" />
    </linearGradient>
    <linearGradient id="cbom-border" x1="1.68783" y1="34.6576" x2="68.7542" y2="34.6576" gradientUnits="userSpaceOnUse">
      <stop stop-color="#0AA06A" />
      <stop offset="1" stop-color="#00E694" />
    </linearGradient>
  </defs>
</svg>
